#!OML:ASF F:\VICON\USERDATA\INSTALL\rory3\rory3.ASF
:FULLY-SPECIFIED
:DEGREES
127
root -10.6888 17.9476 -0.486105 178.493 0.283371 171.238
lowerback 12.0927 -4.93063 -9.39471
upperback 1.61835 -7.44879 2.44014
thorax -3.48493 -3.50728 8.89179
lowerneck 7.05055 -22.6931 -16.5554
upperneck 34.2601 -31.6262 11.8312
head 16.0493 -13.8736 3.06375
rclavicle 1.15295e-014 -3.02153e-014
rhumerus -37.0146 -25.0333 -68.7554
rradius 25.2176
rwrist 10.2122
rhand -14.725 4.92195
rfingers 7.12502
rthumb 11.43 -24.7465
lclavicle 1.15295e-014 -3.02153e-014
lhumerus -23.4965 -0.76316 82.4088
lradius 42.2999
lwrist -0.362269
lhand -21.7056 23.0975
lfingers 7.12502
lthumb 4.69307 53.0255
rfemur -25.8592 0.766441 10.6616
rtibia 33.1164
rfoot -4.05266 2.50866
rtoes -1.83921
lfemur 12.4626 3.83346 -30.2969
ltibia 11.0169
lfoot -1.80218 -13.4483
ltoes -6.3235
128
root -10.7093 17.9442 -0.355125 178.459 0.165985 171.202
lowerback 12.0512 -4.94968 -9.31427
upperback 1.66064 -7.45531 2.42711
thorax -3.42766 -3.51539 8.82483
lowerneck 7.0752 -22.7216 -16.5306
upperneck 34.2941 -31.6178 11.6749
head 16.0133 -13.8836 3.00642
rclavicle 5.56597e-014 3.18055e-015
rhumerus -36.6597 -24.4418 -69.2803
rradius 25.404
rwrist 9.76415
rhand -14.9282 5.20489
rfingers 7.12502
rthumb 11.234 -24.4743
lclavicle 5.56597e-014 3.18055e-015
lhumerus -23.476 -0.664922 82.3835
lradius 42.6102
lwrist -0.234726
lhand -21.6673 23.0396
lfingers 7.12502
lthumb 4.72999 52.9668
rfemur -25.9315 0.590986 10.5575
rtibia 33.6858
rfoot -5.30832 2.78147
rtoes -4.72572
lfemur 11.8091 3.78944 -30.5084
ltibia 11.5704
lfoot -2.51866 -13.1646
ltoes -7.50174
129
root -10.7247 17.9424 -0.22588 178.401 0.0592866 171.219
lowerback 12.0319 -4.91217 -9.22265
upperback 1.67939 -7.38925 2.43041
thorax -3.42249 -3.4838 8.76722
lowerneck 7.28709 -22.7407 -16.6936
upperneck 34.2621 -31.6559 11.7486
head 16.0189 -13.921 3.06358
rclavicle -3.27995e-014 -1.43125e-014
rhumerus -36.4694 -23.9489 -69.6381
rradius 25.714
rwrist 9.24995
rhand -14.8075 5.63383
rfingers 7.12502
rthumb 11.3504 -24.039
lclavicle -3.27995e-014 -1.43125e-014
lhumerus -23.5044 -0.722069 82.4452
lradius 42.8197
lwrist 0.0128569
lhand -21.6646 23.2761
lfingers 7.12502
lthumb 4.73264 53.2033
rfemur -26.0309 0.498525 10.5252
rtibia 34.518
rfoot -6.37372 3.03249
rtoes -6.34874
lfemur 11.1556 3.64665 -30.6569
ltibia 12.1878
lfoot -3.09654 -12.7764
ltoes -7.41599
130
root -10.737 17.9419 -0.0974942 178.251 0.0191277 171.247
lowerback 12.1639 -4.85432 -9.18211
upperback 1.6627 -7.31722 2.44812
thorax -3.53097 -3.43986 8.77419
lowerneck 7.50191 -22.7414 -16.8189
upperneck 34.3588 -31.6234 11.6966
head 16.0357 -13.9226 3.08908
rclavicle 9.78021e-014 -2.8625e-014
rhumerus -36.4206 -23.4465 -69.9619
rradius 26.1458
rwrist 8.89168
rhand -14.6207 5.77852
rfingers 7.12502
rthumb 11.5306 -23.8843
lclavicle 9.78021e-014 -2.8625e-014
lhumerus -23.6616 -0.761422 82.5204
lradius 43.0631
lwrist 0.572477
lhand -21.4574 23.9478
lfingers 7.12502
lthumb 4.93274 53.8704
rfemur -26.0664 0.40736 10.5533
rtibia 35.5441
rfoot -7.12691 3.29739
rtoes -6.93429
lfemur 10.5626 3.46303 -30.7861
ltibia 12.8468
lfoot -3.56474 -12.2226
ltoes -6.8286
131
root -10.747 17.9462 0.0283782 178.08 -0.0774652 171.354
lowerback 12.3089 -4.8219 -9.09486
upperback 1.68253 -7.26618 2.50486
thorax -3.60342 -3.40904 8.79737
lowerneck 7.55827 -22.7511 -16.8194
upperneck 34.4785 -31.5772 11.5538
head 16.0409 -13.9046 3.05397
rclavicle 1.32192e-013 -4.77083e-014
rhumerus -36.2565 -23.0593 -70.2724
rradius 26.4674
rwrist 8.76132
rhand -14.7573 5.92076
rfingers 7.12502
rthumb 11.3989 -23.7494
lclavicle 1.32192e-013 -4.77083e-014
lhumerus -23.8329 -0.561446 82.6212
lradius 43.3664
lwrist 0.674225
lhand -21.1843 24.3961
lfingers 7.12502
lthumb 5.19636 54.3123
rfemur -26.0072 0.314071 10.681
rtibia 36.7415
rfoot -7.69181 3.39396
rtoes -6.73801
lfemur 9.9852 3.35772 -30.7744
ltibia 13.514
lfoot -3.86991 -11.8592
ltoes -6.52992
